# xmcd
#
# Track frame offsets:
#	150
#	7420
#	24065
#	44788
#	60705
#	79633
#	96613
#	116788
#	133130
#	152743
#
# Disc length: 2320 seconds
#
# Revision: 9
# Processed by: cddbd v1.5.2PL0 Copyright (c) Steve Scherf et al.
# Submitted via: Jack! The Knife 20 Magnifico
#
DISCID=8a090e0a
DTITLE=Dokken - Tooth And Nail
DYEAR=1984
DGENRE=Hard Rock
TTITLE0=Without Warning
TTITLE1=Tooth And Nail
TTITLE2=Just Got Lucky
TTITLE3=Heartless Heart
TTITLE4=Don't Close Your Eyes
TTITLE5=When Heaven Comes Down
TTITLE6=Into The Fire
TTITLE7=Bullets To Spare
TTITLE8=Alone Again
TTITLE9=Turn On The Action
EXTD=Tom Werman
EXTT0=George Lynch
EXTT1=Brown, Lynch, Pilson
EXTT2=Lynch, Pilson
EXTT3=Brown, Lynch, Pilson
EXTT4=Dokken, Lynch, Pilson
EXTT5=Brown, Lynch, Pilson
EXTT6=Dokken, Lynch, Pilson
EXTT7=Brown, Dokke, Lynch, Pilson
EXTT8=Dokken, Pilson
EXTT9=Brown, Lynch, Pilson
PLAYORDER=
